<?xml version="1.0" encoding="utf-8"?>
<!DOCTYPE svg PUBLIC "-//W3C//DTD SVG 1.1//DE" "http://www.w3.org/Graphics/SVG/1.1/DTD/svg11.dtd">
<svg version="1.1" id="Ebene_1" xmlns="http://www.w3.org/2000/svg" xmlns:xlink="http://www.w3.org/1999/xlink" x="0px" y="0px" width="100px" height="100px"
	 viewBox="0 0 100 100" enable-background="new 0 0 100 100" xml:space="preserve">

		<circle fill="none" stroke="#438881" stroke-miterlimit="10" stroke-dasharray="12.4322,12.4322" cx="50" cy="50" r="47.5">
		

			<animateTransform attributeName="transform"
				 attributeType="XML"
				 type="rotate"
				 from="0 50 50"
				 to="360 50 50"
				 dur="10s"
				 repeatCount="indefinite" />
		</circle>

		<circle fill="#438881" cx="50" cy="50" r="37.5"/>
		

		<path fill="#FFFFFF" d="M35.917,57.75c0,1.243-1.007,2.25-2.25,2.25l0,0c-1.243,0-2.25-1.007-2.25-2.25V40.083
			c0-1.243,1.007-2.25,2.25-2.25l0,0c1.243,0,2.25,1.007,2.25,2.25V57.75z">


			<animateTransform id="1upndown"
				 attributeName="transform"
				 attributeType="XML"
				 type="translate"
				 dur="1s"
				 values="0,6;0,-6;0,6"
				 repeatCount="indefinite"/>

		</path>


		<path fill="#FFFFFF" d="M44.083,57.75c0,1.243-1.007,2.25-2.25,2.25l0,0c-1.243,0-2.25-1.007-2.25-2.25V40.083
			c0-1.243,1.007-2.25,2.25-2.25l0,0c1.243,0,2.25,1.007,2.25,2.25V57.75z">


			<animateTransform id="2upndown"
				 attributeName="transform"
				 attributeType="XML"
				 type="translate"
				  
				 dur="2s"
				 values="0,6;0,-6;0,6"
				 repeatCount="indefinite"/>

		</path>
		<path fill="#FFFFFF" d="M52.25,57.75c0,1.243-1.007,2.25-2.25,2.25l0,0c-1.243,0-2.25-1.007-2.25-2.25V40.083
			c0-1.243,1.007-2.25,2.25-2.25l0,0c1.243,0,2.25,1.007,2.25,2.25V57.75z">


			<animateTransform id="3upndown"
				 attributeName="transform"
				 attributeType="XML"
				 type="translate"
				  
				 dur="1s"
				 values="0,6;0,-6;0,6"
				 repeatCount="indefinite"/>

		</path>
		<path fill="#FFFFFF" d="M60.417,57.75c0,1.243-1.007,2.25-2.25,2.25l0,0c-1.243,0-2.25-1.007-2.25-2.25V40.083
			c0-1.243,1.007-2.25,2.25-2.25l0,0c1.243,0,2.25,1.007,2.25,2.25V57.75z">


			<animateTransform id="4upndown"
				 attributeName="transform"
				 attributeType="XML"
				 type="translate"
				   
				 dur="2s"
				 values="0,6;0,-6;0,6"
				 repeatCount="indefinite"/>

		</path>
		<path fill="#FFFFFF" d="M68.583,57.75c0,1.243-1.007,2.25-2.25,2.25l0,0c-1.243,0-2.25-1.007-2.25-2.25V40.083
			c0-1.243,1.007-2.25,2.25-2.25l0,0c1.243,0,2.25,1.007,2.25,2.25V57.75z">


			<animateTransform id="5upndown"
				 attributeName="transform"
				 attributeType="XML"
				 type="translate"
				   
				 dur="1s"
				 values="0,6;0,-6;0,6"
				 repeatCount="indefinite"/>

		</path>
</svg>
